<!-- Generated by IcoMoon.io -->
<svg version="1.1" xmlns="http://www.w3.org/2000/svg" width="18" height="16" viewBox="0 0 18 16">
<title>wechat</title>
<path fill="#ff9100" d="M5.179 4.116c0-0.491-0.321-0.813-0.813-0.813-0.482 0-0.973 0.321-0.973 0.813 0 0.482 0.491 0.804 0.973 0.804 0.491 0 0.813-0.321 0.813-0.804zM11.813 8.643c0-0.321-0.321-0.643-0.813-0.643-0.321 0-0.643 0.321-0.643 0.643 0 0.33 0.321 0.652 0.643 0.652 0.491 0 0.813-0.321 0.813-0.652zM9.705 4.116c0-0.491-0.321-0.813-0.804-0.813-0.491 0-0.973 0.321-0.973 0.813 0 0.482 0.482 0.804 0.973 0.804 0.482 0 0.804-0.321 0.804-0.804zM15.375 8.643c0-0.321-0.33-0.643-0.813-0.643-0.321 0-0.643 0.321-0.643 0.643 0 0.33 0.321 0.652 0.643 0.652 0.482 0 0.813-0.321 0.813-0.652zM13 5.098c-0.205-0.027-0.411-0.036-0.625-0.036-3.071 0-5.5 2.295-5.5 5.116 0 0.473 0.071 0.929 0.205 1.357-0.205 0.018-0.402 0.027-0.607 0.027-0.813 0-1.455-0.161-2.268-0.321l-2.259 1.134 0.643-1.946c-1.616-1.134-2.589-2.598-2.589-4.375 0-3.080 2.911-5.5 6.473-5.5 3.179 0 5.973 1.938 6.527 4.545zM18.286 10.107c0 1.455-0.964 2.75-2.268 3.723l0.491 1.616-1.777-0.973c-0.652 0.161-1.304 0.33-1.946 0.33-3.080 0-5.5-2.107-5.5-4.696s2.42-4.696 5.5-4.696c2.911 0 5.5 2.107 5.5 4.696z"></path>
</svg>
