<!-- Generated by IcoMoon.io -->
<svg version="1.1" xmlns="http://www.w3.org/2000/svg" width="64" height="64" viewBox="0 0 64 64">
<title>database4</title>
<path fill="#fff" d="M30 8c-12.15 0-22 4.477-22 10v32c0 5.523 9.85 10 22 10s22-4.477 22-10v-32c0-5.523-9.85-10-22-10zM17.608 15.291c3.385-1.316 7.786-2.041 12.392-2.041s9.007 0.725 12.392 2.041c2.827 1.1 3.982 2.249 4.294 2.709-0.312 0.459-1.467 1.609-4.294 2.709-3.385 1.316-7.786 2.041-12.392 2.041s-9.007-0.725-12.392-2.041c-2.828-1.1-3.982-2.249-4.294-2.709 0.312-0.459 1.467-1.609 4.294-2.709zM48 50c-0.337 0.459-1.582 1.609-4.633 2.709-3.651 1.316-8.399 2.041-13.367 2.041s-9.716-0.725-13.367-2.041c-3.050-1.1-4.296-2.249-4.633-2.709v-10.375c3.981 2.57 10.559 4.25 18 4.25s14.019-1.68 18-4.25v10.375zM48 33.875c-0.337 0.459-1.582 1.609-4.633 2.709-3.651 1.316-8.399 2.041-13.367 2.041s-9.716-0.725-13.367-2.041c-3.050-1.1-4.295-2.249-4.633-2.709v-10.125c3.981 2.57 10.559 4.25 18 4.25s14.019-1.68 18-4.25v10.125z"></path>
</svg>
