<!-- Generated by IcoMoon.io -->
<svg version="1.1" xmlns="http://www.w3.org/2000/svg" width="73" height="64" viewBox="0 0 73 64">
<title>wechat</title>
<path fill="#fff" d="M20.714 16.464c0-1.964-1.286-3.25-3.25-3.25-1.929 0-3.893 1.286-3.893 3.25 0 1.929 1.964 3.214 3.893 3.214 1.964 0 3.25-1.286 3.25-3.214zM47.25 34.571c0-1.286-1.286-2.571-3.25-2.571-1.286 0-2.571 1.286-2.571 2.571 0 1.321 1.286 2.607 2.571 2.607 1.964 0 3.25-1.286 3.25-2.607zM38.821 16.464c0-1.964-1.286-3.25-3.214-3.25-1.964 0-3.893 1.286-3.893 3.25 0 1.929 1.929 3.214 3.893 3.214 1.929 0 3.214-1.286 3.214-3.214zM61.5 34.571c0-1.286-1.321-2.571-3.25-2.571-1.286 0-2.571 1.286-2.571 2.571 0 1.321 1.286 2.607 2.571 2.607 1.929 0 3.25-1.286 3.25-2.607zM52 20.393c-0.821-0.107-1.643-0.143-2.5-0.143-12.286 0-22 9.179-22 20.464 0 1.893 0.286 3.714 0.821 5.429-0.821 0.071-1.607 0.107-2.429 0.107-3.25 0-5.821-0.643-9.071-1.286l-9.036 4.536 2.571-7.786c-6.464-4.536-10.357-10.393-10.357-17.5 0-12.321 11.643-22 25.893-22 12.714 0 23.893 7.75 26.107 18.179zM73.143 40.429c0 5.821-3.857 11-9.071 14.893l1.964 6.464-7.107-3.893c-2.607 0.643-5.214 1.321-7.786 1.321-12.321 0-22-8.429-22-18.786s9.679-18.786 22-18.786c11.643 0 22 8.429 22 18.786z"></path>
</svg>
