<svg style="position: absolute; width: 0; height: 0; overflow: hidden;" version="1.1" xmlns="http://www.w3.org/2000/svg">
<defs>
<symbol id="icon-wechat" viewBox="0 0 18 16">
<title>wechat</title>
<path d="M5.179 4.116c0-0.491-0.321-0.813-0.813-0.813-0.482 0-0.973 0.321-0.973 0.813 0 0.482 0.491 0.804 0.973 0.804 0.491 0 0.813-0.321 0.813-0.804zM11.813 8.643c0-0.321-0.321-0.643-0.813-0.643-0.321 0-0.643 0.321-0.643 0.643 0 0.33 0.321 0.652 0.643 0.652 0.491 0 0.813-0.321 0.813-0.652zM9.705 4.116c0-0.491-0.321-0.813-0.804-0.813-0.491 0-0.973 0.321-0.973 0.813 0 0.482 0.482 0.804 0.973 0.804 0.482 0 0.804-0.321 0.804-0.804zM15.375 8.643c0-0.321-0.33-0.643-0.813-0.643-0.321 0-0.643 0.321-0.643 0.643 0 0.33 0.321 0.652 0.643 0.652 0.482 0 0.813-0.321 0.813-0.652zM13 5.098c-0.205-0.027-0.411-0.036-0.625-0.036-3.071 0-5.5 2.295-5.5 5.116 0 0.473 0.071 0.929 0.205 1.357-0.205 0.018-0.402 0.027-0.607 0.027-0.813 0-1.455-0.161-2.268-0.321l-2.259 1.134 0.643-1.946c-1.616-1.134-2.589-2.598-2.589-4.375 0-3.080 2.911-5.5 6.473-5.5 3.179 0 5.973 1.938 6.527 4.545zM18.286 10.107c0 1.455-0.964 2.75-2.268 3.723l0.491 1.616-1.777-0.973c-0.652 0.161-1.304 0.33-1.946 0.33-3.080 0-5.5-2.107-5.5-4.696s2.42-4.696 5.5-4.696c2.911 0 5.5 2.107 5.5 4.696z"></path>
</symbol>
<symbol id="icon-files-empty" viewBox="0 0 16 16">
<title>files-empty</title>
<path d="M14.341 5.579c-0.347-0.473-0.831-1.027-1.362-1.558s-1.085-1.015-1.558-1.362c-0.806-0.591-1.197-0.659-1.421-0.659h-5.75c-0.689 0-1.25 0.561-1.25 1.25v11.5c0 0.689 0.561 1.25 1.25 1.25h9.5c0.689 0 1.25-0.561 1.25-1.25v-7.75c0-0.224-0.068-0.615-0.659-1.421zM12.271 4.729c0.48 0.48 0.856 0.912 1.134 1.271h-2.406v-2.405c0.359 0.278 0.792 0.654 1.271 1.134v0zM14 14.75c0 0.136-0.114 0.25-0.25 0.25h-9.5c-0.136 0-0.25-0.114-0.25-0.25v-11.5c0-0.135 0.114-0.25 0.25-0.25 0 0 5.749-0 5.75 0v3.5c0 0.276 0.224 0.5 0.5 0.5h3.5v7.75z"></path>
<path d="M9.421 0.659c-0.806-0.591-1.197-0.659-1.421-0.659h-5.75c-0.689 0-1.25 0.561-1.25 1.25v11.5c0 0.604 0.43 1.109 1 1.225v-12.725c0-0.135 0.115-0.25 0.25-0.25h7.607c-0.151-0.124-0.297-0.238-0.437-0.341z"></path>
</symbol>
<symbol id="icon-database4" viewBox="0 0 16 16">
<title>database4</title>
<path d="M7.5 2c-3.038 0-5.5 1.119-5.5 2.5v8c0 1.381 2.462 2.5 5.5 2.5s5.5-1.119 5.5-2.5v-8c0-1.381-2.462-2.5-5.5-2.5zM4.402 3.823c0.846-0.329 1.946-0.51 3.098-0.51s2.252 0.181 3.098 0.51c0.707 0.275 0.995 0.562 1.074 0.677-0.078 0.115-0.367 0.402-1.074 0.677-0.846 0.329-1.946 0.51-3.098 0.51s-2.252-0.181-3.098-0.51c-0.707-0.275-0.995-0.562-1.074-0.677 0.078-0.115 0.367-0.402 1.074-0.677zM12 12.5c-0.084 0.115-0.396 0.402-1.158 0.677-0.913 0.329-2.1 0.51-3.342 0.51s-2.429-0.181-3.342-0.51c-0.763-0.275-1.074-0.562-1.158-0.677v-2.594c0.995 0.643 2.64 1.062 4.5 1.062s3.505-0.42 4.5-1.062v2.594zM12 8.469c-0.084 0.115-0.396 0.402-1.158 0.677-0.913 0.329-2.1 0.51-3.342 0.51s-2.429-0.181-3.342-0.51c-0.763-0.275-1.074-0.562-1.158-0.677v-2.531c0.995 0.643 2.64 1.062 4.5 1.062s3.505-0.42 4.5-1.062v2.531z"></path>
</symbol>
<symbol id="icon-users2" viewBox="0 0 18 16">
<title>users2</title>
<path d="M12 12.041v-0.825c1.101-0.621 2-2.168 2-3.716 0-2.485 0-4.5-3-4.5s-3 2.015-3 4.5c0 1.548 0.898 3.095 2 3.716v0.825c-3.392 0.277-6 1.944-6 3.959h14c0-2.015-2.608-3.682-6-3.959z"></path>
<path d="M3.242 9.625c-0.212 0.077-0.416 0.161-0.611 0.25h4.782c-0.038-0.083-0.075-0.166-0.109-0.25h-4.062z"></path>
<path d="M0.425 11.625c-0.053 0.082-0.101 0.165-0.144 0.25h5.834c0.192-0.089 0.389-0.172 0.593-0.25h-6.284z"></path>
<path d="M1.367 10.625c-0.105 0.081-0.204 0.164-0.299 0.25h6.933c-0.060-0.081-0.118-0.165-0.174-0.25h-6.461z"></path>
<path d="M5.261 9.125c-0.424 0.062-0.833 0.146-1.222 0.25h3.17c-0.030-0.083-0.057-0.166-0.083-0.25h-1.864z"></path>
<path d="M6 8.625v0.25h1.054c-0.022-0.083-0.041-0.166-0.059-0.25h-0.995z"></path>
<path d="M5.851 8.125c0.049 0.032 0.099 0.063 0.149 0.091v0.159h0.947c-0.014-0.083-0.025-0.167-0.035-0.25h-1.062z"></path>
<path d="M0.030 12.625c-0.013 0.083-0.022 0.166-0.027 0.25h4.501c0.102-0.085 0.209-0.169 0.321-0.25h-4.795z"></path>
<path d="M1.719 10.375h5.955c-0.024-0.042-0.048-0.084-0.072-0.127-0.022-0.041-0.044-0.082-0.066-0.123h-5.402c-0.145 0.080-0.283 0.163-0.415 0.25z"></path>
<path d="M4.005 3.625c-0.002 0.083-0.003 0.166-0.003 0.25h3.339c0.004-0.009 0.008-0.018 0.012-0.028 0.035-0.076 0.073-0.15 0.112-0.222h-3.46z"></path>
<path d="M0.168 12.125c-0.032 0.082-0.060 0.166-0.083 0.25h5.109c0.136-0.087 0.277-0.17 0.423-0.25h-5.449z"></path>
<path d="M4.643 0.875h4.713c-0.070-0.089-0.148-0.173-0.234-0.25h-4.245c-0.086 0.077-0.164 0.161-0.234 0.25z"></path>
<path d="M0.602 11.375h6.845c0.256-0.076 0.519-0.145 0.787-0.204-0.013-0.015-0.025-0.030-0.038-0.046h-7.381c-0.076 0.082-0.147 0.165-0.213 0.25z"></path>
<path d="M5.255 7.625c0.085 0.089 0.173 0.173 0.263 0.25h1.371c-0.006-0.083-0.010-0.167-0.012-0.25h-1.622z"></path>
<path d="M4.848 7.125c0.060 0.086 0.123 0.17 0.188 0.25h1.84c0-0.084 0-0.167 0-0.25h-2.027z"></path>
<path d="M4.255 1.625c-0.027 0.081-0.050 0.164-0.072 0.25h5.632c-0.021-0.086-0.045-0.169-0.072-0.25h-5.489z"></path>
<path d="M4.13 2.125c-0.015 0.082-0.029 0.165-0.041 0.25h4.625c0.179-0.098 0.372-0.181 0.578-0.25h-5.162z"></path>
<path d="M4.022 3.125c-0.004 0.082-0.008 0.166-0.010 0.25h3.605c0.058-0.087 0.12-0.17 0.185-0.25h-3.78z"></path>
<path d="M4.059 2.625c-0.008 0.082-0.016 0.165-0.022 0.25h3.995c0.092-0.089 0.189-0.173 0.292-0.25h-4.265z"></path>
<path d="M5.866 0.125c-0.243 0.062-0.455 0.146-0.638 0.25h3.544c-0.184-0.104-0.396-0.188-0.639-0.25h-2.266z"></path>
<path d="M4.544 6.625c0.045 0.085 0.092 0.169 0.141 0.25h2.192c0.001-0.084 0.002-0.167 0.003-0.25h-2.336z"></path>
<path d="M4.475 1.125c-0.046 0.080-0.088 0.163-0.125 0.25h5.3c-0.037-0.087-0.079-0.17-0.125-0.25h-5.050z"></path>
<path d="M4.152 5.625c0.022 0.084 0.048 0.167 0.074 0.25h2.683c0.005-0.084 0.012-0.167 0.019-0.25h-2.777z"></path>
<path d="M4.316 6.125c0.033 0.085 0.068 0.168 0.105 0.25h2.464c0.003-0.084 0.006-0.167 0.009-0.25h-2.579z"></path>
<path d="M4 4.125c-0 0.083-0 0.166-0 0.25h3.155c0.025-0.085 0.053-0.168 0.084-0.25h-3.238z"></path>
<path d="M4.002 4.625c0.003 0.083 0.008 0.167 0.016 0.25h3.014c0.016-0.084 0.035-0.168 0.055-0.25h-3.085z"></path>
<path d="M4.048 5.125c0.013 0.084 0.027 0.167 0.045 0.25h2.862c0.010-0.084 0.021-0.167 0.034-0.25h-2.941z"></path>
</symbol>
<symbol id="icon-key" viewBox="0 0 16 16">
<title>key</title>
<path d="M11 0c-2.761 0-5 2.239-5 5 0 0.313 0.029 0.619 0.084 0.916l-6.084 6.084v3c0 0.552 0.448 1 1 1h1v-1h2v-2h2v-2h2l1.298-1.298c0.531 0.192 1.105 0.298 1.702 0.298 2.761 0 5-2.239 5-5s-2.239-5-5-5zM12.498 5.002c-0.828 0-1.5-0.672-1.5-1.5s0.672-1.5 1.5-1.5 1.5 0.672 1.5 1.5-0.672 1.5-1.5 1.5z"></path>
</symbol>
<symbol id="icon-list-numbered" viewBox="0 0 16 16">
<title>list-numbered</title>
<path d="M6 13h10v2h-10zM6 7h10v2h-10zM6 1h10v2h-10zM3 0v4h-1v-3h-1v-1zM2 8.219v0.781h2v1h-3v-2.281l2-0.938v-0.781h-2v-1h3v2.281zM4 11v5h-3v-1h2v-1h-2v-1h2v-1h-2v-1z"></path>
</symbol>
<symbol id="icon-circle-small" viewBox="0 0 16 16">
<title>circle-small</title>
<path d="M5 8c0-1.657 1.343-3 3-3s3 1.343 3 3c0 1.657-1.343 3-3 3s-3-1.343-3-3z"></path>
</symbol>
</defs>
</svg>
